<mxfile host="app.diagrams.net" modified="2023-01-11T14:00:07.404Z" agent="5.0 (Windows NT 10.0; Win64; x64) AppleWebKit/537.36 (KHTML, like Gecko) Chrome/108.0.0.0 Safari/537.36" etag="4wlxbqBtlG--iHj1BTu3" version="20.8.3" type="github">
  <diagram id="kgpKYQtTHZ0yAKxKKP6v" name="Page-1">
    <mxGraphModel dx="2732" dy="465" grid="1" gridSize="10" guides="1" tooltips="1" connect="1" arrows="1" fold="1" page="1" pageScale="1" pageWidth="850" pageHeight="1100" math="0" shadow="0">
      <root>
        <mxCell id="0" />
        <mxCell id="1" parent="0" />
        <mxCell id="VgFMn7d585Ha0XAmIZsE-21" value="" style="points=[];perimeter=orthogonalPerimeter;rounded=0;shadow=0;strokeWidth=1;" parent="1" vertex="1">
          <mxGeometry x="-1635" y="121" width="10" height="900" as="geometry" />
        </mxCell>
        <mxCell id="VgFMn7d585Ha0XAmIZsE-23" value="&lt;b&gt;alt&lt;/b&gt;" style="shape=umlFrame;whiteSpace=wrap;html=1;fontSize=11;width=30;height=20;fillColor=none;" parent="1" vertex="1">
          <mxGeometry x="-1670" y="255" width="990" height="165" as="geometry" />
        </mxCell>
        <mxCell id="3nuBFxr9cyL0pnOWT2aG-1" value="SettingView" style="shape=umlLifeline;perimeter=lifelinePerimeter;container=1;collapsible=0;recursiveResize=0;rounded=0;shadow=0;strokeWidth=1;" parent="1" vertex="1">
          <mxGeometry x="-1460" y="80" width="100" height="941" as="geometry" />
        </mxCell>
        <mxCell id="3nuBFxr9cyL0pnOWT2aG-2" value="" style="points=[];perimeter=orthogonalPerimeter;rounded=0;shadow=0;strokeWidth=1;" parent="3nuBFxr9cyL0pnOWT2aG-1" vertex="1">
          <mxGeometry x="45" y="80" width="10" height="50" as="geometry" />
        </mxCell>
        <mxCell id="VgFMn7d585Ha0XAmIZsE-6" value="1: press border photo profile" style="verticalAlign=bottom;endArrow=block;shadow=0;strokeWidth=1;fontStyle=0;labelBorderColor=none;labelBackgroundColor=none;exitX=1.021;exitY=0.034;exitDx=0;exitDy=0;exitPerimeter=0;" parent="3nuBFxr9cyL0pnOWT2aG-1" edge="1">
          <mxGeometry relative="1" as="geometry">
            <mxPoint x="-164.78999999999996" y="78.62" as="sourcePoint" />
            <mxPoint x="44" y="80" as="targetPoint" />
          </mxGeometry>
        </mxCell>
        <mxCell id="3nuBFxr9cyL0pnOWT2aG-5" value="UtilityHelper" style="shape=umlLifeline;perimeter=lifelinePerimeter;container=1;collapsible=0;recursiveResize=0;rounded=0;shadow=0;strokeWidth=1;" parent="1" vertex="1">
          <mxGeometry x="-1040" y="80" width="100" height="941" as="geometry" />
        </mxCell>
        <mxCell id="VgFMn7d585Ha0XAmIZsE-7" value="3: isOfflineModeFeatureAvailable()" style="verticalAlign=bottom;endArrow=block;shadow=0;strokeWidth=1;fontStyle=0;labelBorderColor=none;labelBackgroundColor=none;entryX=-0.024;entryY=0.003;entryDx=0;entryDy=0;entryPerimeter=0;exitX=1.178;exitY=0.813;exitDx=0;exitDy=0;exitPerimeter=0;" parent="3nuBFxr9cyL0pnOWT2aG-5" edge="1" source="3nuBFxr9cyL0pnOWT2aG-2">
          <mxGeometry relative="1" as="geometry">
            <mxPoint x="-169.63333333333344" y="120" as="sourcePoint" />
            <mxPoint x="44.76000000000022" y="120.21000000000004" as="targetPoint" />
          </mxGeometry>
        </mxCell>
        <mxCell id="VgFMn7d585Ha0XAmIZsE-16" value="" style="points=[];perimeter=orthogonalPerimeter;rounded=0;shadow=0;strokeWidth=1;" parent="3nuBFxr9cyL0pnOWT2aG-5" vertex="1">
          <mxGeometry x="45" y="121" width="10" height="179" as="geometry" />
        </mxCell>
        <mxCell id="D12k0bA-BJYKIJGbDswn-10" value="" style="group" parent="1" vertex="1" connectable="0">
          <mxGeometry x="-1640" y="80" width="20" height="710" as="geometry" />
        </mxCell>
        <mxCell id="D12k0bA-BJYKIJGbDswn-4" value="User" style="shape=umlActor;verticalLabelPosition=bottom;verticalAlign=top;html=1;outlineConnect=0;" parent="D12k0bA-BJYKIJGbDswn-10" vertex="1">
          <mxGeometry y="-20" width="20" height="40" as="geometry" />
        </mxCell>
        <mxCell id="VgFMn7d585Ha0XAmIZsE-24" value="&lt;span style=&quot;font-size: 10px;&quot;&gt;[Acad is not permitted to access Offline Mode]&lt;/span&gt;" style="text;html=1;strokeColor=none;fillColor=none;align=center;verticalAlign=middle;whiteSpace=wrap;rounded=0;" parent="1" vertex="1">
          <mxGeometry x="-1620" y="255" width="110" height="35.5" as="geometry" />
        </mxCell>
        <mxCell id="VgFMn7d585Ha0XAmIZsE-25" value="" style="points=[];perimeter=orthogonalPerimeter;rounded=0;shadow=0;strokeWidth=1;" parent="1" vertex="1">
          <mxGeometry x="-1415" y="274" width="10" height="58" as="geometry" />
        </mxCell>
        <mxCell id="VgFMn7d585Ha0XAmIZsE-49" value="" style="line;strokeWidth=1;fillColor=none;align=left;verticalAlign=middle;spacingTop=-1;spacingLeft=3;spacingRight=3;rotatable=0;labelPosition=right;points=[];portConstraint=eastwest;strokeColor=inherit;fontSize=10;dashed=1;" parent="1" vertex="1">
          <mxGeometry x="-1669" y="339" width="989" height="8" as="geometry" />
        </mxCell>
        <mxCell id="VgFMn7d585Ha0XAmIZsE-50" value="&lt;span style=&quot;font-size: 10px;&quot;&gt;[Acad is permitted to access Offline Mode]&lt;/span&gt;" style="text;html=1;strokeColor=none;fillColor=none;align=center;verticalAlign=middle;whiteSpace=wrap;rounded=0;" parent="1" vertex="1">
          <mxGeometry x="-1624" y="343" width="110" height="35.5" as="geometry" />
        </mxCell>
        <mxCell id="Guo4P8dY95QTmtFHYeZ4-5" value="7: hide offline mode configuration menu" style="verticalAlign=bottom;endArrow=open;dashed=1;endSize=8;shadow=0;strokeWidth=1;entryX=1.046;entryY=0.283;entryDx=0;entryDy=0;entryPerimeter=0;exitX=-0.105;exitY=0.86;exitDx=0;exitDy=0;exitPerimeter=0;labelBackgroundColor=none;" parent="1" edge="1">
          <mxGeometry relative="1" as="geometry">
            <mxPoint x="-1624.9999999999998" y="321.5" as="targetPoint" />
            <mxPoint x="-1416.05" y="321.6600000000001" as="sourcePoint" />
          </mxGeometry>
        </mxCell>
        <mxCell id="Guo4P8dY95QTmtFHYeZ4-6" value="" style="points=[];perimeter=orthogonalPerimeter;rounded=0;shadow=0;strokeWidth=1;" parent="1" vertex="1">
          <mxGeometry x="-1415" y="362" width="10" height="48" as="geometry" />
        </mxCell>
        <mxCell id="eCdpHvhe5fwS4jkzBV9C-2" value="LocalDatabase" style="shape=umlLifeline;perimeter=lifelinePerimeter;container=1;collapsible=0;recursiveResize=0;rounded=0;shadow=0;strokeWidth=1;" parent="1" vertex="1">
          <mxGeometry x="-815" y="80" width="100" height="941" as="geometry" />
        </mxCell>
        <mxCell id="eCdpHvhe5fwS4jkzBV9C-8" value="" style="points=[];perimeter=orthogonalPerimeter;rounded=0;shadow=0;strokeWidth=1;" parent="1" vertex="1">
          <mxGeometry x="-770" y="217" width="10" height="29" as="geometry" />
        </mxCell>
        <mxCell id="eCdpHvhe5fwS4jkzBV9C-9" value="4: checkCurrentAcadOfflineModePermit()" style="verticalAlign=bottom;endArrow=block;shadow=0;strokeWidth=1;fontStyle=0;labelBorderColor=none;labelBackgroundColor=none;entryX=-0.024;entryY=0.003;entryDx=0;entryDy=0;entryPerimeter=0;" parent="1" edge="1">
          <mxGeometry relative="1" as="geometry">
            <mxPoint x="-985.0033333333331" y="217" as="sourcePoint" />
            <mxPoint x="-770.6099999999997" y="217.21000000000015" as="targetPoint" />
          </mxGeometry>
        </mxCell>
        <mxCell id="eCdpHvhe5fwS4jkzBV9C-10" value="5: return boolean" style="verticalAlign=bottom;endArrow=open;dashed=1;endSize=8;exitX=0;exitY=0.95;shadow=0;strokeWidth=1;entryX=1.046;entryY=0.283;entryDx=0;entryDy=0;entryPerimeter=0;" parent="1" edge="1">
          <mxGeometry relative="1" as="geometry">
            <mxPoint x="-985" y="240" as="targetPoint" />
            <mxPoint x="-770.4600000000003" y="240.2199999999999" as="sourcePoint" />
          </mxGeometry>
        </mxCell>
        <mxCell id="rFGstGtkIx78UECEyDi8-2" value="2: show setting page" style="verticalAlign=bottom;endArrow=open;dashed=1;endSize=8;shadow=0;strokeWidth=1;entryX=1.046;entryY=0.283;entryDx=0;entryDy=0;entryPerimeter=0;exitX=-0.105;exitY=0.86;exitDx=0;exitDy=0;exitPerimeter=0;labelBackgroundColor=none;" edge="1" parent="1">
          <mxGeometry relative="1" as="geometry">
            <mxPoint x="-1624.9999999999998" y="188" as="targetPoint" />
            <mxPoint x="-1416.05" y="188.16000000000008" as="sourcePoint" />
          </mxGeometry>
        </mxCell>
        <mxCell id="rFGstGtkIx78UECEyDi8-3" value="9: show offline mode configuration menu" style="verticalAlign=bottom;endArrow=open;dashed=1;endSize=8;shadow=0;strokeWidth=1;entryX=1.046;entryY=0.283;entryDx=0;entryDy=0;entryPerimeter=0;exitX=-0.105;exitY=0.86;exitDx=0;exitDy=0;exitPerimeter=0;labelBackgroundColor=none;" edge="1" parent="1">
          <mxGeometry relative="1" as="geometry">
            <mxPoint x="-1624.9999999999998" y="400" as="targetPoint" />
            <mxPoint x="-1416.05" y="400.1600000000001" as="sourcePoint" />
          </mxGeometry>
        </mxCell>
        <mxCell id="rFGstGtkIx78UECEyDi8-4" value="10: press offline mode configuration menu" style="verticalAlign=bottom;endArrow=block;shadow=0;strokeWidth=1;fontStyle=0;labelBorderColor=none;labelBackgroundColor=none;exitX=1.021;exitY=0.034;exitDx=0;exitDy=0;exitPerimeter=0;entryX=-0.047;entryY=-0.002;entryDx=0;entryDy=0;entryPerimeter=0;" edge="1" parent="1" target="rFGstGtkIx78UECEyDi8-9">
          <mxGeometry relative="1" as="geometry">
            <mxPoint x="-1623.79" y="448" as="sourcePoint" />
            <mxPoint x="-1220" y="448" as="targetPoint" />
          </mxGeometry>
        </mxCell>
        <mxCell id="rFGstGtkIx78UECEyDi8-6" value="OfflineMode-&#xa;ConfigView" style="shape=umlLifeline;perimeter=lifelinePerimeter;container=1;collapsible=0;recursiveResize=0;rounded=0;shadow=0;strokeWidth=1;" vertex="1" parent="1">
          <mxGeometry x="-1260" y="80" width="100" height="941" as="geometry" />
        </mxCell>
        <mxCell id="rFGstGtkIx78UECEyDi8-9" value="" style="points=[];perimeter=orthogonalPerimeter;rounded=0;shadow=0;strokeWidth=1;" vertex="1" parent="rFGstGtkIx78UECEyDi8-6">
          <mxGeometry x="45" y="369" width="10" height="31" as="geometry" />
        </mxCell>
        <mxCell id="VgFMn7d585Ha0XAmIZsE-26" value="6: return false" style="verticalAlign=bottom;endArrow=open;dashed=1;endSize=8;exitX=0;exitY=0.95;shadow=0;strokeWidth=1;entryX=0.955;entryY=0.003;entryDx=0;entryDy=0;entryPerimeter=0;" parent="1" edge="1" target="VgFMn7d585Ha0XAmIZsE-25">
          <mxGeometry relative="1" as="geometry">
            <mxPoint x="-1210" y="272.55" as="targetPoint" />
            <mxPoint x="-995.46" y="272.77000000000004" as="sourcePoint" />
          </mxGeometry>
        </mxCell>
        <mxCell id="VgFMn7d585Ha0XAmIZsE-52" value="8: return true" style="verticalAlign=bottom;endArrow=open;dashed=1;endSize=8;shadow=0;strokeWidth=1;entryX=0.988;entryY=0;entryDx=0;entryDy=0;entryPerimeter=0;" parent="1" edge="1" target="Guo4P8dY95QTmtFHYeZ4-6">
          <mxGeometry relative="1" as="geometry">
            <mxPoint x="-1210.0000000000002" y="360.55" as="targetPoint" />
            <mxPoint x="-995" y="362" as="sourcePoint" />
          </mxGeometry>
        </mxCell>
        <mxCell id="rFGstGtkIx78UECEyDi8-10" value="11: show offline mode configuration page" style="verticalAlign=bottom;endArrow=open;dashed=1;endSize=8;exitX=0;exitY=0.95;shadow=0;strokeWidth=1;entryX=0.955;entryY=0.003;entryDx=0;entryDy=0;entryPerimeter=0;" edge="1" parent="1">
          <mxGeometry relative="1" as="geometry">
            <mxPoint x="-1625" y="471.4039999999999" as="targetPoint" />
            <mxPoint x="-1215.01" y="470" as="sourcePoint" />
          </mxGeometry>
        </mxCell>
      </root>
    </mxGraphModel>
  </diagram>
</mxfile>
